<svg xmlns="http://www.w3.org/2000/svg" width="18.265" height="14.89" viewBox="0 0 18.265 14.89"><path d="M927.278,413.908a8.14,8.14,0,0,1-2.133.6,3.938,3.938,0,0,0,1.671-2.087,8.68,8.68,0,0,1-2.365.929,3.939,3.939,0,0,0-2.78-1.207,3.742,3.742,0,0,0-3.757,3.725v.028a4.689,4.689,0,0,0,.093.835,10.771,10.771,0,0,1-7.742-3.9,3.758,3.758,0,0,0-.51,1.9,3.663,3.663,0,0,0,1.67,3.111,3.632,3.632,0,0,1-1.709-.464v.047a3.733,3.733,0,0,0,3.012,3.663,3.523,3.523,0,0,1-.976.138c-.232,0-.464-.046-.694-.046a3.746,3.746,0,0,0,3.477,2.6,7.422,7.422,0,0,1-4.64,1.624,5.207,5.207,0,0,1-.88-.046,10.681,10.681,0,0,0,16.418-9V415.9a10.767,10.767,0,0,0,1.847-1.988" transform="translate(-909.013 -412.146)" fill="#fcfaf8"/></svg>