<svg xmlns="http://www.w3.org/2000/svg" width="20.593" height="14.489" viewBox="0 0 20.593 14.489"><path d="M988.595,413.473c-.742-.882-2.116-1.244-4.735-1.244h-9.512c-2.687,0-4.076.384-4.816,1.325-.722.915-.722,2.267-.722,4.137v3.564c0,3.622.855,5.462,5.539,5.462h9.517c2.271,0,3.532-.317,4.346-1.1.836-.8,1.192-2.106,1.192-4.365v-3.565c0-1.968-.059-3.328-.807-4.216m-6.568,6.492-4.32,2.259a.654.654,0,0,1-.307.075.666.666,0,0,1-.664-.663v-4.5a.665.665,0,0,1,.663-.663.653.653,0,0,1,.306.075l4.32,2.243a.664.664,0,0,1,0,1.176Z" transform="translate(-968.809 -412.229)" fill="#fcfaf8"/></svg>