<svg xmlns="http://www.w3.org/2000/svg" width="16.904" height="16.907" viewBox="0 0 16.904 16.907"><g transform="translate(0)"><path d="M1039.055,412.7c2.259,0,2.523.014,3.407.052a4.748,4.748,0,0,1,1.571.292,2.636,2.636,0,0,1,.976.633,2.724,2.724,0,0,1,.634.976,4.674,4.674,0,0,1,.291,1.573c.04.885.052,1.162.052,3.418s-.014,2.522-.052,3.418a4.739,4.739,0,0,1-.291,1.573,2.677,2.677,0,0,1-.634.976,2.727,2.727,0,0,1-.976.633,4.66,4.66,0,0,1-1.571.29c-.885.041-1.162.052-3.407.052s-2.524-.014-3.409-.052a4.751,4.751,0,0,1-1.571-.29,2.689,2.689,0,0,1-.977-.633,2.733,2.733,0,0,1-.633-.976,4.7,4.7,0,0,1-.292-1.573c-.037-.9-.051-1.162-.051-3.418s.014-2.523.051-3.418a4.771,4.771,0,0,1,.292-1.573,2.669,2.669,0,0,1,.633-.976,2.728,2.728,0,0,1,.977-.633,4.688,4.688,0,0,1,1.571-.292c.885-.039,1.163-.052,3.409-.052m0-1.519c-2.285,0-2.576.014-3.475.052a6.068,6.068,0,0,0-2.048.4,4.374,4.374,0,0,0-2.469,2.47,6.079,6.079,0,0,0-.4,2.046c-.04.9-.052,1.19-.052,3.488s.013,2.589.052,3.486a6,6,0,0,0,.4,2.048,3.96,3.96,0,0,0,.976,1.493,4.211,4.211,0,0,0,1.492.976,6.093,6.093,0,0,0,2.048.4c.9.042,1.19.056,3.486.056s2.576-.014,3.488-.056a6.036,6.036,0,0,0,2.047-.4,3.943,3.943,0,0,0,1.491-.976,4.216,4.216,0,0,0,.977-1.493,6.153,6.153,0,0,0,.4-2.048c.039-.9.052-1.187.052-3.486s-.013-2.589-.052-3.488a6.03,6.03,0,0,0-.4-2.046,3.935,3.935,0,0,0-.977-1.492,4.193,4.193,0,0,0-1.491-.976,6.122,6.122,0,0,0-2.047-.4c-.912-.041-1.2-.052-3.5-.052Z" transform="translate(-1030.614 -411.177)" fill="#fcfaf8"/><path d="M1038.493,414.718a4.346,4.346,0,1,0,4.333,4.357v-.012a4.339,4.339,0,0,0-4.331-4.346Zm0,7.16a2.814,2.814,0,1,1,2.808-2.82v.006a2.817,2.817,0,0,1-2.808,2.816Z" transform="translate(-1030.053 -410.612)" fill="#fcfaf8"/><path d="M1042.935,414.711a1.017,1.017,0,1,1-1.017-1.017,1.017,1.017,0,0,1,1.017,1.017" transform="translate(-1028.974 -410.776)" fill="#fcfaf8"/></g></svg>