<svg xmlns="http://www.w3.org/2000/svg" width="16.902" height="16.908" viewBox="0 0 16.902 16.908"><g transform="translate(0)"><path d="M1102.326,411.093h-9.279a3.812,3.812,0,0,0-3.811,3.812v9.285a3.811,3.811,0,0,0,3.811,3.811h9.279a3.811,3.811,0,0,0,3.812-3.811v-9.285a3.812,3.812,0,0,0-3.812-3.812m-.214,10.473h0a18.225,18.225,0,0,1-4.429,3.273c-.6.254-.513-.161-.488-.3l.08-.488a1.159,1.159,0,0,0-.017-.509c-.064-.158-.313-.245-.5-.278-2.709-.358-4.715-2.253-4.715-4.518,0-2.522,2.53-4.574,5.637-4.574s5.637,2.052,5.637,4.574a4.069,4.069,0,0,1-1.2,2.824Z" transform="translate(-1089.236 -411.093)" fill="#fcfaf8"/><path d="M1100,416.647h-1.587a.108.108,0,0,0-.108.108v2.456a.108.108,0,0,0,.108.108H1100a.108.108,0,0,0,.108-.108v-.4a.108.108,0,0,0-.108-.108h-1.077v-.415H1100a.107.107,0,0,0,.108-.107v-.4a.109.109,0,0,0-.108-.108h-1.077v-.415H1100a.107.107,0,0,0,.108-.107v-.4a.109.109,0,0,0-.108-.1" transform="translate(-1087.79 -410.207)" fill="#fcfaf8"/><path d="M1094.95,418.707h-1.077v-1.954a.106.106,0,0,0-.107-.107h-.4a.106.106,0,0,0-.106.107v2.459a.107.107,0,0,0,.106.108h1.587a.108.108,0,0,0,.108-.108v-.4a.108.108,0,0,0-.11-.106h0" transform="translate(-1088.595 -410.207)" fill="#fcfaf8"/><path d="M1095.408,416.647h0a.307.307,0,0,1,.307.307v2.061a.307.307,0,1,1-.614,0v-2.061a.308.308,0,0,1,.307-.307" transform="translate(-1088.301 -410.207)" fill="#fcfaf8"/><path d="M1098.188,416.647h-.4a.108.108,0,0,0-.108.108v1.464l-1.125-1.52-.008-.01-.006-.006h-.439a.107.107,0,0,0-.108.107v2.46a.108.108,0,0,0,.108.108h.4a.107.107,0,0,0,.107-.108v-1.466l1.128,1.523a.089.089,0,0,0,.028.027h.015a.112.112,0,0,0,.028,0h.4a.107.107,0,0,0,.107-.108v-2.46a.105.105,0,0,0-.093-.119.119.119,0,0,0-.029,0" transform="translate(-1088.159 -410.208)" fill="#fcfaf8"/></g></svg>