<svg xmlns="http://www.w3.org/2000/svg" width="37" height="37" viewBox="0 0 37 37"><g transform="translate(0.319 0.022)"><circle cx="18.5" cy="18.5" r="18.5" transform="translate(-0.319 -0.022)" fill="#ffeca5"/><g transform="translate(7.426 11.395)"><path d="M103.392,698.218c-.779-.926-2.219-1.3-4.968-1.3H88.446c-2.818,0-4.275.4-5.053,1.389-.757.96-.757,2.379-.757,4.341v3.738c0,3.8.9,5.73,5.809,5.73H98.43c2.383,0,3.706-.332,4.559-1.152.876-.838,1.25-2.208,1.25-4.579v-3.739c0-2.065-.062-3.492-.847-4.423m-6.89,6.81-4.531,2.37a.707.707,0,0,1-.323.079.7.7,0,0,1-.7-.7v-4.723a.7.7,0,0,1,1.017-.616l4.531,2.353a.7.7,0,0,1,0,1.234Z" transform="translate(-82.637 -696.913)" fill="#3b201b"/></g></g></svg>