<svg xmlns="http://www.w3.org/2000/svg" width="37" height="37" viewBox="0 0 37 37"><g transform="translate(0.319 0.145)"><circle cx="18.5" cy="18.5" r="18.5" transform="translate(-0.319 -0.145)" fill="#ffeca5"/><g transform="translate(9.542 9.411)"><path d="M178.132,695.764h-9.837a4.041,4.041,0,0,0-4.041,4.04v9.844a4.042,4.042,0,0,0,4.041,4.041h9.837a4.042,4.042,0,0,0,4.041-4.041V699.8a4.041,4.041,0,0,0-4.041-4.04m-.227,11.1h0a19.312,19.312,0,0,1-4.7,3.471c-.638.269-.544-.171-.518-.322.016-.09.086-.518.086-.518a1.234,1.234,0,0,0-.019-.541c-.068-.167-.332-.258-.526-.295-2.873-.378-5-2.387-5-4.789,0-2.674,2.681-4.85,5.976-4.85s5.976,2.175,5.976,4.85a4.312,4.312,0,0,1-1.277,2.994Z" transform="translate(-164.253 -695.764)" fill="#3b201b"/><path d="M175.953,701.826h-1.682a.113.113,0,0,0-.114.114v2.6a.113.113,0,0,0,.114.114h1.682a.113.113,0,0,0,.114-.114v-.425a.113.113,0,0,0-.114-.114h-1.142v-.44h1.142a.113.113,0,0,0,.114-.114v-.423a.114.114,0,0,0-.114-.114h-1.142v-.44h1.142a.114.114,0,0,0,.114-.114v-.423a.114.114,0,0,0-.114-.112" transform="translate(-163.005 -695)" fill="#3b201b"/><path d="M170.438,704.012H169.3v-2.071a.113.113,0,0,0-.114-.114h-.423a.113.113,0,0,0-.114.114v2.607a.113.113,0,0,0,.114.114h1.683a.114.114,0,0,0,.114-.114v-.425a.114.114,0,0,0-.117-.111h0" transform="translate(-163.699 -695)" fill="#3b201b"/><path d="M170.983,701.826h0a.327.327,0,0,1,.327.326v2.185a.327.327,0,1,1-.653,0v-2.185a.327.327,0,0,1,.327-.326" transform="translate(-163.446 -695)" fill="#3b201b"/><path d="M173.957,701.826h-.425a.113.113,0,0,0-.114.114v1.554l-1.194-1.613-.009-.011-.007-.007h-.465a.114.114,0,0,0-.114.115v2.608a.113.113,0,0,0,.114.114h.422a.113.113,0,0,0,.114-.114v-1.554l1.2,1.615a.116.116,0,0,0,.029.028h.016a.131.131,0,0,0,.029,0h.422a.113.113,0,0,0,.114-.114v-2.608a.113.113,0,0,0-.1-.127.133.133,0,0,0-.03,0" transform="translate(-163.323 -695)" fill="#3b201b"/></g></g></svg>