<svg xmlns="http://www.w3.org/2000/svg" width="37" height="37" viewBox="0 0 37 37"><g transform="translate(0.319)"><circle cx="18.5" cy="18.5" r="18.5" transform="translate(-0.319)" fill="#ffeca5"/><path d="M62.38,698.84a8.9,8.9,0,0,1-2.332.66,4.31,4.31,0,0,0,1.826-2.282,9.5,9.5,0,0,1-2.585,1.015,4.308,4.308,0,0,0-3.042-1.319,4.092,4.092,0,0,0-4.107,4.073v.031a5.024,5.024,0,0,0,.1.912,11.772,11.772,0,0,1-8.466-4.261,4.1,4.1,0,0,0-.559,2.078,4.006,4.006,0,0,0,1.826,3.4,3.97,3.97,0,0,1-1.87-.507v.052a4.084,4.084,0,0,0,3.3,4,3.866,3.866,0,0,1-1.067.151c-.254,0-.508-.051-.76-.051a4.094,4.094,0,0,0,3.8,2.841,8.1,8.1,0,0,1-5.073,1.777,5.8,5.8,0,0,1-.963-.05,11.681,11.681,0,0,0,17.954-9.842v-.511a11.8,11.8,0,0,0,2.02-2.174" transform="translate(-33.253 -685.655)" fill="#3b201b"/></g></svg>