<svg xmlns="http://www.w3.org/2000/svg" width="37" height="37" viewBox="0 0 37 37"><g transform="translate(0.319 0.123)"><circle cx="18.5" cy="18.5" r="18.5" transform="translate(-0.319 -0.123)" fill="#ffeca5"/><g transform="translate(9.542 9.294)"><path d="M134.12,697.376c2.4,0,2.675.014,3.613.056a5.045,5.045,0,0,1,1.667.309,2.81,2.81,0,0,1,1.035.672,2.881,2.881,0,0,1,.672,1.035,4.929,4.929,0,0,1,.307,1.668c.043.938.056,1.232.056,3.624s-.015,2.674-.056,3.624a5.014,5.014,0,0,1-.307,1.668,2.822,2.822,0,0,1-.672,1.035,2.905,2.905,0,0,1-1.035.672,4.952,4.952,0,0,1-1.667.306c-.938.043-1.232.056-3.613.056s-2.676-.015-3.614-.056a5.017,5.017,0,0,1-1.667-.306,2.839,2.839,0,0,1-1.035-.672,2.871,2.871,0,0,1-.672-1.035,4.959,4.959,0,0,1-.309-1.668c-.041-.952-.055-1.232-.055-3.624s.015-2.676.055-3.624a5.015,5.015,0,0,1,.309-1.668,2.808,2.808,0,0,1,.672-1.035,2.879,2.879,0,0,1,1.035-.672,4.958,4.958,0,0,1,1.667-.309c.938-.043,1.232-.056,3.614-.056m0-1.61c-2.423,0-2.731.015-3.684.055a6.419,6.419,0,0,0-2.171.42,4.641,4.641,0,0,0-2.619,2.618,6.483,6.483,0,0,0-.42,2.171c-.042.953-.056,1.261-.056,3.7s.015,2.745.056,3.7a6.387,6.387,0,0,0,.42,2.17,4.176,4.176,0,0,0,1.036,1.583,4.451,4.451,0,0,0,1.582,1.036,6.438,6.438,0,0,0,2.17.419c.953.045,1.261.059,3.7.059s2.732-.015,3.7-.059a6.388,6.388,0,0,0,2.171-.419,4.191,4.191,0,0,0,1.582-1.036,4.456,4.456,0,0,0,1.035-1.583,6.444,6.444,0,0,0,.421-2.17c.043-.952.055-1.259.055-3.7s-.014-2.744-.055-3.7a6.391,6.391,0,0,0-.421-2.171,4.181,4.181,0,0,0-1.035-1.581A4.493,4.493,0,0,0,140,696.241a6.481,6.481,0,0,0-2.171-.419c-.966-.044-1.274-.056-3.711-.056Z" transform="translate(-125.169 -695.765)" fill="#3b201b"/><path d="M133.635,699.631a4.607,4.607,0,1,0,4.595,4.619v-.012a4.6,4.6,0,0,0-4.592-4.607Zm0,7.59a2.984,2.984,0,1,1,2.977-2.99v.006a2.987,2.987,0,0,1-2.977,2.987Z" transform="translate(-124.684 -695.277)" fill="#3b201b"/><path d="M138.557,699.591a1.078,1.078,0,1,1-1.079-1.079,1.079,1.079,0,0,1,1.079,1.079" transform="translate(-123.752 -695.419)" fill="#3b201b"/></g></g></svg>