<svg xmlns="http://www.w3.org/2000/svg" width="28.466" height="6.414" viewBox="0 0 28.466 6.414"><g transform="translate(-40.879 -95.556)"><path d="M47.577,95.81a.694.694,0,0,1,.082.232,2.559,2.559,0,0,1,.013.3v4.772q0,.593-.327.7a1.383,1.383,0,0,1-.412.052,1.447,1.447,0,0,1-.4-.043.694.694,0,0,1-.224-.1.385.385,0,0,1-.12-.172,1.742,1.742,0,0,1-.042-.447V98.714a.168.168,0,0,0-.3-.1c-.1.13-.2.28-.325.451q-.412.581-.524.726l-.155.2a.68.68,0,0,1-.176.134.761.761,0,0,1-.371.119.706.706,0,0,1-.377-.09.786.786,0,0,1-.228-.176l-.069-.095q-.172-.215-.679-.916l-.248-.342a.168.168,0,0,0-.3.1v2.387a2.465,2.465,0,0,1-.013.3.589.589,0,0,1-.082.219q-.129.232-.67.232-.524,0-.653-.232a.617.617,0,0,1-.082-.224,2.658,2.658,0,0,1-.013-.309V96.325a2.44,2.44,0,0,1,.013-.3.7.7,0,0,1,.082-.228q.129-.222.671-.223a1.28,1.28,0,0,1,.4.055.52.52,0,0,1,.22.116l.051.051,1.951,2.562q1.462-1.935,1.952-2.553.146-.232.692-.232t.666.232" transform="translate(0 -0.004)" fill="#3b201b"/><path d="M53.457,100.074a.272.272,0,0,0,.273.273H56.1a2.458,2.458,0,0,1,.3.013.7.7,0,0,1,.228.082q.232.12.233.67,0,.6-.318.705a1.441,1.441,0,0,1-.447.051h-3.4q-.6,0-.706-.326a1.354,1.354,0,0,1-.051-.439V96.323a.832.832,0,0,1,.164-.6.9.9,0,0,1,.619-.159H56.1a2.459,2.459,0,0,1,.3.013.662.662,0,0,1,.228.082c.155.08.233.3.233.67,0,.4-.107.636-.318.7a1.436,1.436,0,0,1-.447.052H53.729a.272.272,0,0,0-.273.273v.323a.273.273,0,0,0,.273.273h1.429a2.447,2.447,0,0,1,.3.013.67.67,0,0,1,.228.082q.232.12.232.67,0,.6-.326.706a1.466,1.466,0,0,1-.447.051H53.729a.272.272,0,0,0-.273.273Z" transform="translate(-2.192 -0.002)" fill="#3b201b"/><path d="M64.3,95.831a.41.41,0,0,1,.245-.2,1.368,1.368,0,0,1,.408-.051,1.506,1.506,0,0,1,.4.042.634.634,0,0,1,.224.1.351.351,0,0,1,.107.18,1.354,1.354,0,0,1,.051.439v4.772a2.432,2.432,0,0,1-.013.3.676.676,0,0,1-.081.224q-.121.232-.671.232a1.408,1.408,0,0,1-.464-.052.5.5,0,0,1-.215-.164q-1.544-2.058-2.245-2.978a.167.167,0,0,0-.3.1v2.334a2.4,2.4,0,0,1-.014.3.676.676,0,0,1-.081.224c-.081.155-.3.232-.671.232s-.573-.078-.653-.232a.7.7,0,0,1-.082-.232,2.767,2.767,0,0,1-.013-.3v-4.8a1.048,1.048,0,0,1,.082-.477.41.41,0,0,1,.245-.2,1.424,1.424,0,0,1,.421-.051,1.386,1.386,0,0,1,.408.047.519.519,0,0,1,.211.107,2.111,2.111,0,0,1,.2.224q1.442,1.961,2.124,2.864a.167.167,0,0,0,.3-.1V96.308a1.048,1.048,0,0,1,.082-.477" transform="translate(-3.837 -0.004)" fill="#3b201b"/><path d="M73.575,95.8a.439.439,0,0,1,.249-.189,1.375,1.375,0,0,1,.408-.051,1.457,1.457,0,0,1,.391.042.678.678,0,0,1,.224.1.341.341,0,0,1,.112.18,1.466,1.466,0,0,1,.051.447v2.6a3.332,3.332,0,0,1-.7,2.064,2.559,2.559,0,0,1-.886.71,2.645,2.645,0,0,1-1.2.271,2.593,2.593,0,0,1-1.2-.275,2.493,2.493,0,0,1-.872-.722,3.312,3.312,0,0,1-.7-2.064V96.321a2.729,2.729,0,0,1,.013-.3.7.7,0,0,1,.082-.228.378.378,0,0,1,.232-.18,1.9,1.9,0,0,1,.877,0,.346.346,0,0,1,.223.18,1.183,1.183,0,0,1,.1.542v2.579a2.048,2.048,0,0,0,.258,1,.967.967,0,0,0,.387.387,1.22,1.22,0,0,0,.61.146,1.051,1.051,0,0,0,.937-.464A1.894,1.894,0,0,0,73.49,98.9V96.27a.941.941,0,0,1,.086-.473" transform="translate(-5.667)" fill="#3b201b"/></g></svg>